<svg width="40" height="32" viewBox="0 0 40 32" fill="none" xmlns="http://www.w3.org/2000/svg">
<path d="M39.2422 10.2728C39.5469 10.0216 40 10.2566 40 10.6536V27.2213C40 29.3682 38.3203 31.11 36.25 31.11H3.75C1.67969 31.11 0 29.3682 0 27.2213V10.6617C0 10.2566 0.445312 10.0297 0.757812 10.2809C2.50781 11.6906 4.82812 13.481 12.7969 19.4843C14.4453 20.7319 17.2266 23.3568 20 23.3406C22.7891 23.3649 25.625 20.6833 27.2109 19.4843C35.1797 13.481 37.4922 11.6825 39.2422 10.2728ZM20 20.74C21.8125 20.7724 24.4219 18.3743 25.7344 17.386C36.1016 9.58415 36.8906 8.90362 39.2812 6.95924C39.7344 6.59467 40 6.02756 40 5.42805V3.88875C40 1.74184 38.3203 0 36.25 0H3.75C1.67969 0 0 1.74184 0 3.88875V5.42805C0 6.02756 0.265625 6.58657 0.71875 6.95924C3.10938 8.89552 3.89844 9.58415 14.2656 17.386C15.5781 18.3743 18.1875 20.7724 20 20.74Z" fill="white"/>
</svg>
