<svg width="33" height="33" viewBox="0 0 33 33" fill="none" xmlns="http://www.w3.org/2000/svg">
<path d="M24.25 1H8.75C4.46979 1 1 4.46979 1 8.75V24.25C1 28.5302 4.46979 32 8.75 32H24.25C28.5302 32 32 28.5302 32 24.25V8.75C32 4.46979 28.5302 1 24.25 1Z" stroke="white" stroke-width="2" stroke-linecap="round" stroke-linejoin="round"/>
<path d="M22.7 15.5236C22.8913 16.8136 22.671 18.131 22.0703 19.2886C21.4697 20.4461 20.5194 21.3848 19.3545 21.9711C18.1897 22.5574 16.8696 22.7615 15.5821 22.5543C14.2946 22.3471 13.1051 21.7392 12.183 20.8171C11.2609 19.895 10.653 18.7056 10.4458 17.418C10.2386 16.1305 10.4427 14.8104 11.029 13.6456C11.6153 12.4807 12.554 11.5304 13.7115 10.9298C14.8691 10.3292 16.1865 10.1088 17.4765 10.3001C18.7923 10.4952 20.0105 11.1084 20.9511 12.049C21.8917 12.9896 22.5049 14.2078 22.7 15.5236Z" stroke="white" stroke-width="2" stroke-linecap="round" stroke-linejoin="round"/>
<path d="M25.025 7.97498H25.0405" stroke="white" stroke-width="2" stroke-linecap="round" stroke-linejoin="round"/>
</svg>
