<svg width="40" height="32" viewBox="0 0 40 32" fill="none" xmlns="http://www.w3.org/2000/svg">
<path d="M19.4697 8.06952L6.66719 18.6138V29.9942C6.66719 30.2889 6.78425 30.5715 6.99261 30.7798C7.20096 30.9882 7.48356 31.1052 7.77822 31.1052L15.5596 31.0851C15.8533 31.0836 16.1344 30.9659 16.3416 30.7577C16.5487 30.5495 16.665 30.2678 16.665 29.9741V23.3281C16.665 23.0334 16.7821 22.7508 16.9904 22.5425C17.1988 22.3341 17.4814 22.217 17.7761 22.217H22.2202C22.5148 22.217 22.7974 22.3341 23.0058 22.5425C23.2141 22.7508 23.3312 23.0334 23.3312 23.3281V29.9692C23.3307 30.1154 23.3591 30.2603 23.4148 30.3955C23.4704 30.5307 23.5522 30.6535 23.6554 30.7571C23.7586 30.8606 23.8812 30.9428 24.0162 30.9988C24.1513 31.0549 24.296 31.0837 24.4422 31.0837L32.2208 31.1052C32.5154 31.1052 32.798 30.9882 33.0064 30.7798C33.2148 30.5715 33.3318 30.2889 33.3318 29.9942V18.6062L20.5321 8.06952C20.3816 7.94822 20.1942 7.88208 20.0009 7.88208C19.8076 7.88208 19.6202 7.94822 19.4697 8.06952ZM39.6924 15.2363L33.8873 10.4513V0.833269C33.8873 0.612272 33.7995 0.400327 33.6433 0.244059C33.487 0.0877908 33.275 0 33.0541 0H29.1655C28.9445 0 28.7325 0.0877908 28.5763 0.244059C28.42 0.400327 28.3322 0.612272 28.3322 0.833269V5.87524L22.1153 0.760358C21.5187 0.269409 20.7701 0.000981414 19.9974 0.000981414C19.2248 0.000981414 18.4761 0.269409 17.8795 0.760358L0.302406 15.2363C0.218029 15.3061 0.14822 15.3917 0.0969688 15.4885C0.0457172 15.5852 0.0140272 15.6911 0.00370954 15.8001C-0.00660814 15.909 0.00464871 16.019 0.0368369 16.1236C0.0690251 16.2283 0.121514 16.3255 0.191304 16.4098L1.962 18.5625C2.0316 18.6471 2.11721 18.7172 2.21392 18.7687C2.31064 18.8202 2.41656 18.8521 2.52563 18.8626C2.6347 18.8731 2.74477 18.862 2.84954 18.8299C2.95432 18.7979 3.05173 18.7454 3.13622 18.6756L19.4697 5.22252C19.6202 5.10122 19.8076 5.03508 20.0009 5.03508C20.1942 5.03508 20.3816 5.10122 20.5321 5.22252L36.8663 18.6756C36.9506 18.7454 37.0479 18.7979 37.1525 18.8301C37.2571 18.8623 37.3671 18.8736 37.476 18.8632C37.585 18.8529 37.6909 18.8212 37.7876 18.77C37.8844 18.7187 37.97 18.6489 38.0398 18.5645L39.8105 16.4119C39.8802 16.3271 39.9325 16.2293 39.9643 16.1243C39.9961 16.0192 40.0068 15.9088 39.9958 15.7996C39.9849 15.6903 39.9524 15.5843 39.9003 15.4877C39.8483 15.391 39.7776 15.3056 39.6924 15.2363Z" fill="white"/>
</svg>
