<svg width="40" height="32" viewBox="0 0 40 32" fill="none" xmlns="http://www.w3.org/2000/svg">
<path d="M38.8593 21.9834L30.1091 19.0668C29.7353 18.9429 29.3199 18.9168 28.9254 18.9924C28.5308 19.068 28.1786 19.2413 27.9216 19.4861L24.0465 23.1683C17.965 20.9382 13.0707 17.1317 10.2033 12.4017L14.9378 9.38791C15.2531 9.18841 15.4764 8.91443 15.5736 8.60744C15.6709 8.30045 15.6369 7.97718 15.4768 7.68655L11.7268 0.881117C11.5511 0.567829 11.2403 0.312041 10.8481 0.157857C10.4559 0.0036732 10.0068 -0.0392409 9.57829 0.0365143L1.45315 1.49482C1.03999 1.56902 0.671375 1.74995 0.407456 2.00807C0.143538 2.2662 -9.51743e-05 2.58627 4.73149e-08 2.91606C4.73149e-08 18.5017 16.2425 31.11 36.2506 31.11C36.6748 31.1102 37.0865 30.9986 37.4186 30.7933C37.7506 30.588 37.9833 30.3012 38.0788 29.9798L39.9538 23.6605C40.0506 23.3256 39.9942 22.9749 39.7945 22.6688C39.5947 22.3627 39.264 22.1204 38.8593 21.9834Z" fill="white"/>
</svg>
