<svg width="660" height="141" viewBox="0 0 660 141" fill="none" xmlns="http://www.w3.org/2000/svg">
<path d="M89.9277 44.8086C89.9277 43.1484 89.3418 41.8789 88.1699 41C86.998 40.1016 84.8887 39.1641 81.8418 38.1875C78.7949 37.1914 76.3828 36.2148 74.6055 35.2578C69.7617 32.6406 67.3398 29.1152 67.3398 24.6816C67.3398 22.377 67.9844 20.3262 69.2734 18.5293C70.582 16.7129 72.4473 15.2969 74.8691 14.2812C77.3105 13.2656 80.0449 12.7578 83.0723 12.7578C86.1191 12.7578 88.834 13.3145 91.2168 14.4277C93.5996 15.5215 95.4453 17.0742 96.7539 19.0859C98.082 21.0977 98.7461 23.3828 98.7461 25.9414H89.957C89.957 23.9883 89.3418 22.4746 88.1113 21.4004C86.8809 20.3066 85.1523 19.7598 82.9258 19.7598C80.7773 19.7598 79.1074 20.2188 77.916 21.1367C76.7246 22.0352 76.1289 23.2266 76.1289 24.7109C76.1289 26.0977 76.8223 27.2598 78.209 28.1973C79.6152 29.1348 81.6758 30.0137 84.3906 30.834C89.3906 32.3379 93.0332 34.2031 95.3184 36.4297C97.6035 38.6562 98.7461 41.4297 98.7461 44.75C98.7461 48.4414 97.3496 51.3418 94.5566 53.4512C91.7637 55.541 88.0039 56.5859 83.2773 56.5859C79.9961 56.5859 77.0078 55.9902 74.3125 54.7988C71.6172 53.5879 69.5566 51.9375 68.1309 49.8477C66.7246 47.7578 66.0215 45.3359 66.0215 42.582H74.8398C74.8398 47.2891 77.6523 49.6426 83.2773 49.6426C85.3672 49.6426 86.998 49.2227 88.1699 48.3828C89.3418 47.5234 89.9277 46.332 89.9277 44.8086ZM122.535 56C122.145 55.2383 121.861 54.291 121.686 53.1582C119.635 55.4434 116.969 56.5859 113.688 56.5859C110.582 56.5859 108.004 55.6875 105.953 53.8906C103.922 52.0938 102.906 49.8281 102.906 47.0938C102.906 43.7344 104.146 41.1562 106.627 39.3594C109.127 37.5625 112.73 36.6543 117.438 36.6348H121.334V34.8184C121.334 33.3535 120.953 32.1816 120.191 31.3027C119.449 30.4238 118.268 29.9844 116.646 29.9844C115.221 29.9844 114.098 30.3262 113.277 31.0098C112.477 31.6934 112.076 32.6309 112.076 33.8223H103.609C103.609 31.9863 104.176 30.2871 105.309 28.7246C106.441 27.1621 108.043 25.9414 110.113 25.0625C112.184 24.1641 114.508 23.7148 117.086 23.7148C120.992 23.7148 124.088 24.7012 126.373 26.6738C128.678 28.627 129.83 31.3809 129.83 34.9355V48.6758C129.85 51.6836 130.27 53.959 131.09 55.502V56H122.535ZM115.533 50.1113C116.783 50.1113 117.936 49.8379 118.99 49.291C120.045 48.7246 120.826 47.9727 121.334 47.0352V41.5859H118.17C113.932 41.5859 111.676 43.0508 111.402 45.9805L111.373 46.4785C111.373 47.5332 111.744 48.4023 112.486 49.0859C113.229 49.7695 114.244 50.1113 115.533 50.1113ZM128.072 11.3809C128.072 13.5879 127.428 15.4434 126.139 16.9473C124.85 18.4316 123.277 19.1738 121.422 19.1738C120.68 19.1738 120.016 19.0957 119.43 18.9395C118.863 18.7637 118.072 18.4023 117.057 17.8555C116.041 17.3086 115.309 16.9766 114.859 16.8594C114.41 16.7227 113.922 16.6543 113.395 16.6543C112.711 16.6543 112.125 16.8984 111.637 17.3867C111.168 17.875 110.934 18.5684 110.934 19.4668L106.012 19.1738C106.012 17.0059 106.646 15.1602 107.916 13.6367C109.205 12.1133 110.777 11.3516 112.633 11.3516C113.219 11.3516 113.766 11.4297 114.273 11.5859C114.801 11.7227 115.65 12.0742 116.822 12.6406C117.994 13.207 118.805 13.5488 119.254 13.666C119.703 13.7832 120.172 13.8418 120.66 13.8418C121.344 13.8418 121.93 13.6074 122.418 13.1387C122.926 12.6504 123.18 11.957 123.18 11.0586L128.072 11.3809ZM135.016 39.8574C135.016 36.7129 135.621 33.9102 136.832 31.4492C138.043 28.9883 139.781 27.084 142.047 25.7363C144.332 24.3887 146.979 23.7148 149.986 23.7148C154.264 23.7148 157.75 25.0234 160.445 27.6406C163.16 30.2578 164.674 33.8125 164.986 38.3047L165.045 40.4727C165.045 45.3359 163.688 49.2422 160.973 52.1914C158.258 55.1211 154.615 56.5859 150.045 56.5859C145.475 56.5859 141.822 55.1211 139.088 52.1914C136.373 49.2617 135.016 45.2773 135.016 40.2383V39.8574ZM143.482 40.4727C143.482 43.4805 144.049 45.7852 145.182 47.3867C146.314 48.9688 147.936 49.7598 150.045 49.7598C152.096 49.7598 153.697 48.9785 154.85 47.416C156.002 45.834 156.578 43.3145 156.578 39.8574C156.578 36.9082 156.002 34.623 154.85 33.002C153.697 31.3809 152.076 30.5703 149.986 30.5703C147.916 30.5703 146.314 31.3809 145.182 33.002C144.049 34.6035 143.482 37.0938 143.482 40.4727ZM194.547 40.9707V56H185.758V13.3438H202.398C205.602 13.3438 208.414 13.9297 210.836 15.1016C213.277 16.2734 215.152 17.9434 216.461 20.1113C217.77 22.2598 218.424 24.7109 218.424 27.4648C218.424 31.6445 216.988 34.9453 214.117 37.3672C211.266 39.7695 207.311 40.9707 202.252 40.9707H194.547ZM194.547 33.8516H202.398C204.723 33.8516 206.49 33.3047 207.701 32.2109C208.932 31.1172 209.547 29.5547 209.547 27.5234C209.547 25.4336 208.932 23.7441 207.701 22.4551C206.471 21.166 204.771 20.502 202.604 20.4629H194.547V33.8516ZM238.111 56.5859C233.463 56.5859 229.674 55.1602 226.744 52.3086C223.834 49.457 222.379 45.6582 222.379 40.9121V40.0918C222.379 36.9082 222.994 34.0664 224.225 31.5664C225.455 29.0469 227.193 27.1133 229.439 25.7656C231.705 24.3984 234.283 23.7148 237.174 23.7148C241.51 23.7148 244.918 25.082 247.398 27.8164C249.898 30.5508 251.148 34.4277 251.148 39.4473V42.9043H230.963C231.236 44.9746 232.057 46.6348 233.424 47.8848C234.811 49.1348 236.559 49.7598 238.668 49.7598C241.93 49.7598 244.479 48.5781 246.314 46.2148L250.475 50.873C249.205 52.6699 247.486 54.0762 245.318 55.0918C243.15 56.0879 240.748 56.5859 238.111 56.5859ZM237.145 30.5703C235.465 30.5703 234.098 31.1367 233.043 32.2695C232.008 33.4023 231.344 35.0234 231.051 37.1328H242.828V36.459C242.789 34.584 242.281 33.1387 241.305 32.123C240.328 31.0879 238.941 30.5703 237.145 30.5703ZM254.664 39.916C254.664 34.9746 255.768 31.0391 257.975 28.1094C260.201 25.1797 263.238 23.7148 267.086 23.7148C270.172 23.7148 272.721 24.8672 274.732 27.1719V11H283.229V56H275.582L275.172 52.6309C273.062 55.2676 270.348 56.5859 267.027 56.5859C263.297 56.5859 260.299 55.1211 258.033 52.1914C255.787 49.2422 254.664 45.1504 254.664 39.916ZM263.131 40.5312C263.131 43.5 263.648 45.7754 264.684 47.3574C265.719 48.9395 267.223 49.7305 269.195 49.7305C271.812 49.7305 273.658 48.627 274.732 46.4199V33.9102C273.678 31.7031 271.852 30.5996 269.254 30.5996C265.172 30.5996 263.131 33.9102 263.131 40.5312ZM307.604 32.2402C306.451 32.084 305.436 32.0059 304.557 32.0059C301.354 32.0059 299.254 33.0898 298.258 35.2578V56H289.791V24.3008H297.789L298.023 28.0801C299.723 25.1699 302.076 23.7148 305.084 23.7148C306.021 23.7148 306.9 23.8418 307.721 24.0957L307.604 32.2402ZM309.332 39.8574C309.332 36.7129 309.938 33.9102 311.148 31.4492C312.359 28.9883 314.098 27.084 316.363 25.7363C318.648 24.3887 321.295 23.7148 324.303 23.7148C328.58 23.7148 332.066 25.0234 334.762 27.6406C337.477 30.2578 338.99 33.8125 339.303 38.3047L339.361 40.4727C339.361 45.3359 338.004 49.2422 335.289 52.1914C332.574 55.1211 328.932 56.5859 324.361 56.5859C319.791 56.5859 316.139 55.1211 313.404 52.1914C310.689 49.2617 309.332 45.2773 309.332 40.2383V39.8574ZM317.799 40.4727C317.799 43.4805 318.365 45.7852 319.498 47.3867C320.631 48.9688 322.252 49.7598 324.361 49.7598C326.412 49.7598 328.014 48.9785 329.166 47.416C330.318 45.834 330.895 43.3145 330.895 39.8574C330.895 36.9082 330.318 34.623 329.166 33.002C328.014 31.3809 326.393 30.5703 324.303 30.5703C322.232 30.5703 320.631 31.3809 319.498 33.002C318.365 34.6035 317.799 37.0938 317.799 40.4727ZM358.199 39.8574C358.199 36.7129 358.805 33.9102 360.016 31.4492C361.227 28.9883 362.965 27.084 365.23 25.7363C367.516 24.3887 370.162 23.7148 373.17 23.7148C377.447 23.7148 380.934 25.0234 383.629 27.6406C386.344 30.2578 387.857 33.8125 388.17 38.3047L388.229 40.4727C388.229 45.3359 386.871 49.2422 384.156 52.1914C381.441 55.1211 377.799 56.5859 373.229 56.5859C368.658 56.5859 365.006 55.1211 362.271 52.1914C359.557 49.2617 358.199 45.2773 358.199 40.2383V39.8574ZM366.666 40.4727C366.666 43.4805 367.232 45.7852 368.365 47.3867C369.498 48.9688 371.119 49.7598 373.229 49.7598C375.279 49.7598 376.881 48.9785 378.033 47.416C379.186 45.834 379.762 43.3145 379.762 39.8574C379.762 36.9082 379.186 34.623 378.033 33.002C376.881 31.3809 375.26 30.5703 373.17 30.5703C371.1 30.5703 369.498 31.3809 368.365 33.002C367.232 34.6035 366.666 37.0938 366.666 40.4727ZM417.73 40.9707V56H408.941V13.3438H425.582C428.785 13.3438 431.598 13.9297 434.02 15.1016C436.461 16.2734 438.336 17.9434 439.645 20.1113C440.953 22.2598 441.607 24.7109 441.607 27.4648C441.607 31.6445 440.172 34.9453 437.301 37.3672C434.449 39.7695 430.494 40.9707 425.436 40.9707H417.73ZM417.73 33.8516H425.582C427.906 33.8516 429.674 33.3047 430.885 32.2109C432.115 31.1172 432.73 29.5547 432.73 27.5234C432.73 25.4336 432.115 23.7441 430.885 22.4551C429.654 21.166 427.955 20.502 425.787 20.4629H417.73V33.8516ZM461.295 56.5859C456.646 56.5859 452.857 55.1602 449.928 52.3086C447.018 49.457 445.562 45.6582 445.562 40.9121V40.0918C445.562 36.9082 446.178 34.0664 447.408 31.5664C448.639 29.0469 450.377 27.1133 452.623 25.7656C454.889 24.3984 457.467 23.7148 460.357 23.7148C464.693 23.7148 468.102 25.082 470.582 27.8164C473.082 30.5508 474.332 34.4277 474.332 39.4473V42.9043H454.146C454.42 44.9746 455.24 46.6348 456.607 47.8848C457.994 49.1348 459.742 49.7598 461.852 49.7598C465.113 49.7598 467.662 48.5781 469.498 46.2148L473.658 50.873C472.389 52.6699 470.67 54.0762 468.502 55.0918C466.334 56.0879 463.932 56.5859 461.295 56.5859ZM460.328 30.5703C458.648 30.5703 457.281 31.1367 456.227 32.2695C455.191 33.4023 454.527 35.0234 454.234 37.1328H466.012V36.459C465.973 34.584 465.465 33.1387 464.488 32.123C463.512 31.0879 462.125 30.5703 460.328 30.5703ZM496.334 47.2402C496.334 46.2051 495.816 45.3945 494.781 44.8086C493.766 44.2031 492.125 43.666 489.859 43.1973C482.32 41.6152 478.551 38.4121 478.551 33.5879C478.551 30.7754 479.713 28.4316 482.037 26.5566C484.381 24.6621 487.438 23.7148 491.207 23.7148C495.23 23.7148 498.443 24.6621 500.846 26.5566C503.268 28.4512 504.479 30.9121 504.479 33.9395H496.012C496.012 32.7285 495.621 31.7324 494.84 30.9512C494.059 30.1504 492.838 29.75 491.178 29.75C489.752 29.75 488.648 30.0723 487.867 30.7168C487.086 31.3613 486.695 32.1816 486.695 33.1777C486.695 34.1152 487.135 34.877 488.014 35.4629C488.912 36.0293 490.416 36.5273 492.525 36.957C494.635 37.3672 496.412 37.8359 497.857 38.3633C502.33 40.0039 504.566 42.8457 504.566 46.8887C504.566 49.7793 503.326 52.123 500.846 53.9199C498.365 55.6973 495.162 56.5859 491.236 56.5859C488.58 56.5859 486.217 56.1172 484.146 55.1797C482.096 54.2227 480.484 52.9238 479.312 51.2832C478.141 49.623 477.555 47.8359 477.555 45.9219H485.582C485.66 47.4258 486.217 48.5781 487.252 49.3789C488.287 50.1797 489.674 50.5801 491.412 50.5801C493.033 50.5801 494.254 50.2773 495.074 49.6719C495.914 49.0469 496.334 48.2363 496.334 47.2402ZM523.229 49.7598C524.791 49.7598 526.061 49.3301 527.037 48.4707C528.014 47.6113 528.521 46.4688 528.561 45.043H536.5C536.48 47.1914 535.895 49.1641 534.742 50.9609C533.59 52.7383 532.008 54.125 529.996 55.1211C528.004 56.0977 525.797 56.5859 523.375 56.5859C518.844 56.5859 515.27 55.1504 512.652 52.2793C510.035 49.3887 508.727 45.4043 508.727 40.3262V39.7695C508.727 34.8867 510.025 30.9902 512.623 28.0801C515.221 25.1699 518.785 23.7148 523.316 23.7148C527.281 23.7148 530.455 24.8477 532.838 27.1133C535.24 29.3594 536.461 32.3574 536.5 36.1074H528.561C528.521 34.4668 528.014 33.1387 527.037 32.123C526.061 31.0879 524.771 30.5703 523.17 30.5703C521.197 30.5703 519.703 31.293 518.688 32.7383C517.691 34.1641 517.193 36.4883 517.193 39.7109V40.5898C517.193 43.8516 517.691 46.1953 518.688 47.6211C519.684 49.0469 521.197 49.7598 523.229 49.7598ZM559.703 56C559.312 55.2383 559.029 54.291 558.854 53.1582C556.803 55.4434 554.137 56.5859 550.855 56.5859C547.75 56.5859 545.172 55.6875 543.121 53.8906C541.09 52.0938 540.074 49.8281 540.074 47.0938C540.074 43.7344 541.314 41.1562 543.795 39.3594C546.295 37.5625 549.898 36.6543 554.605 36.6348H558.502V34.8184C558.502 33.3535 558.121 32.1816 557.359 31.3027C556.617 30.4238 555.436 29.9844 553.814 29.9844C552.389 29.9844 551.266 30.3262 550.445 31.0098C549.645 31.6934 549.244 32.6309 549.244 33.8223H540.777C540.777 31.9863 541.344 30.2871 542.477 28.7246C543.609 27.1621 545.211 25.9414 547.281 25.0625C549.352 24.1641 551.676 23.7148 554.254 23.7148C558.16 23.7148 561.256 24.7012 563.541 26.6738C565.846 28.627 566.998 31.3809 566.998 34.9355V48.6758C567.018 51.6836 567.438 53.959 568.258 55.502V56H559.703ZM552.701 50.1113C553.951 50.1113 555.104 49.8379 556.158 49.291C557.213 48.7246 557.994 47.9727 558.502 47.0352V41.5859H555.338C551.1 41.5859 548.844 43.0508 548.57 45.9805L548.541 46.4785C548.541 47.5332 548.912 48.4023 549.654 49.0859C550.396 49.7695 551.412 50.1113 552.701 50.1113ZM572.184 39.916C572.184 34.9746 573.287 31.0391 575.494 28.1094C577.721 25.1797 580.758 23.7148 584.605 23.7148C587.691 23.7148 590.24 24.8672 592.252 27.1719V11H600.748V56H593.102L592.691 52.6309C590.582 55.2676 587.867 56.5859 584.547 56.5859C580.816 56.5859 577.818 55.1211 575.553 52.1914C573.307 49.2422 572.184 45.1504 572.184 39.916ZM580.65 40.5312C580.65 43.5 581.168 45.7754 582.203 47.3574C583.238 48.9395 584.742 49.7305 586.715 49.7305C589.332 49.7305 591.178 48.627 592.252 46.4199V33.9102C591.197 31.7031 589.371 30.5996 586.773 30.5996C582.691 30.5996 580.65 33.9102 580.65 40.5312ZM605.992 39.8574C605.992 36.7129 606.598 33.9102 607.809 31.4492C609.02 28.9883 610.758 27.084 613.023 25.7363C615.309 24.3887 617.955 23.7148 620.963 23.7148C625.24 23.7148 628.727 25.0234 631.422 27.6406C634.137 30.2578 635.65 33.8125 635.963 38.3047L636.021 40.4727C636.021 45.3359 634.664 49.2422 631.949 52.1914C629.234 55.1211 625.592 56.5859 621.021 56.5859C616.451 56.5859 612.799 55.1211 610.064 52.1914C607.35 49.2617 605.992 45.2773 605.992 40.2383V39.8574ZM614.459 40.4727C614.459 43.4805 615.025 45.7852 616.158 47.3867C617.291 48.9688 618.912 49.7598 621.021 49.7598C623.072 49.7598 624.674 48.9785 625.826 47.416C626.979 45.834 627.555 43.3145 627.555 39.8574C627.555 36.9082 626.979 34.623 625.826 33.002C624.674 31.3809 623.053 30.5703 620.963 30.5703C618.893 30.5703 617.291 31.3809 616.158 33.002C615.025 34.6035 614.459 37.0938 614.459 40.4727ZM659.049 32.2402C657.896 32.084 656.881 32.0059 656.002 32.0059C652.799 32.0059 650.699 33.0898 649.703 35.2578V56H641.236V24.3008H649.234L649.469 28.0801C651.168 25.1699 653.521 23.7148 656.529 23.7148C657.467 23.7148 658.346 23.8418 659.166 24.0957L659.049 32.2402Z" fill="#282828"/>
<path d="M76.2344 85.875L85 110.625L93.7188 85.875H102.953V120H95.8984V110.672L96.6016 94.5703L87.3906 120H82.5625L73.375 94.5938L74.0781 110.672V120H67.0469V85.875H76.2344ZM115.797 120H109V94.6406H115.797V120ZM108.602 88.0781C108.602 87.0625 108.938 86.2266 109.609 85.5703C110.297 84.9141 111.227 84.5859 112.398 84.5859C113.555 84.5859 114.477 84.9141 115.164 85.5703C115.852 86.2266 116.195 87.0625 116.195 88.0781C116.195 89.1094 115.844 89.9531 115.141 90.6094C114.453 91.2656 113.539 91.5938 112.398 91.5938C111.258 91.5938 110.336 91.2656 109.633 90.6094C108.945 89.9531 108.602 89.1094 108.602 88.0781ZM135.133 112.992C135.133 112.164 134.719 111.516 133.891 111.047C133.078 110.562 131.766 110.133 129.953 109.758C123.922 108.492 120.906 105.93 120.906 102.07C120.906 99.8203 121.836 97.9453 123.695 96.4453C125.57 94.9297 128.016 94.1719 131.031 94.1719C134.25 94.1719 136.82 94.9297 138.742 96.4453C140.68 97.9609 141.648 99.9297 141.648 102.352H134.875C134.875 101.383 134.562 100.586 133.938 99.9609C133.312 99.3203 132.336 99 131.008 99C129.867 99 128.984 99.2578 128.359 99.7734C127.734 100.289 127.422 100.945 127.422 101.742C127.422 102.492 127.773 103.102 128.477 103.57C129.195 104.023 130.398 104.422 132.086 104.766C133.773 105.094 135.195 105.469 136.352 105.891C139.93 107.203 141.719 109.477 141.719 112.711C141.719 115.023 140.727 116.898 138.742 118.336C136.758 119.758 134.195 120.469 131.055 120.469C128.93 120.469 127.039 120.094 125.383 119.344C123.742 118.578 122.453 117.539 121.516 116.227C120.578 114.898 120.109 113.469 120.109 111.938H126.531C126.594 113.141 127.039 114.062 127.867 114.703C128.695 115.344 129.805 115.664 131.195 115.664C132.492 115.664 133.469 115.422 134.125 114.938C134.797 114.438 135.133 113.789 135.133 112.992ZM159.836 112.992C159.836 112.164 159.422 111.516 158.594 111.047C157.781 110.562 156.469 110.133 154.656 109.758C148.625 108.492 145.609 105.93 145.609 102.07C145.609 99.8203 146.539 97.9453 148.398 96.4453C150.273 94.9297 152.719 94.1719 155.734 94.1719C158.953 94.1719 161.523 94.9297 163.445 96.4453C165.383 97.9609 166.352 99.9297 166.352 102.352H159.578C159.578 101.383 159.266 100.586 158.641 99.9609C158.016 99.3203 157.039 99 155.711 99C154.57 99 153.688 99.2578 153.062 99.7734C152.438 100.289 152.125 100.945 152.125 101.742C152.125 102.492 152.477 103.102 153.18 103.57C153.898 104.023 155.102 104.422 156.789 104.766C158.477 105.094 159.898 105.469 161.055 105.891C164.633 107.203 166.422 109.477 166.422 112.711C166.422 115.023 165.43 116.898 163.445 118.336C161.461 119.758 158.898 120.469 155.758 120.469C153.633 120.469 151.742 120.094 150.086 119.344C148.445 118.578 147.156 117.539 146.219 116.227C145.281 114.898 144.812 113.469 144.812 111.938H151.234C151.297 113.141 151.742 114.062 152.57 114.703C153.398 115.344 154.508 115.664 155.898 115.664C157.195 115.664 158.172 115.422 158.828 114.938C159.5 114.438 159.836 113.789 159.836 112.992ZM185.5 120C185.188 119.391 184.961 118.633 184.82 117.727C183.18 119.555 181.047 120.469 178.422 120.469C175.938 120.469 173.875 119.75 172.234 118.312C170.609 116.875 169.797 115.062 169.797 112.875C169.797 110.188 170.789 108.125 172.773 106.688C174.773 105.25 177.656 104.523 181.422 104.508H184.539V103.055C184.539 101.883 184.234 100.945 183.625 100.242C183.031 99.5391 182.086 99.1875 180.789 99.1875C179.648 99.1875 178.75 99.4609 178.094 100.008C177.453 100.555 177.133 101.305 177.133 102.258H170.359C170.359 100.789 170.812 99.4297 171.719 98.1797C172.625 96.9297 173.906 95.9531 175.562 95.25C177.219 94.5312 179.078 94.1719 181.141 94.1719C184.266 94.1719 186.742 94.9609 188.57 96.5391C190.414 98.1016 191.336 100.305 191.336 103.148V114.141C191.352 116.547 191.688 118.367 192.344 119.602V120H185.5ZM179.898 115.289C180.898 115.289 181.82 115.07 182.664 114.633C183.508 114.18 184.133 113.578 184.539 112.828V108.469H182.008C178.617 108.469 176.812 109.641 176.594 111.984L176.57 112.383C176.57 113.227 176.867 113.922 177.461 114.469C178.055 115.016 178.867 115.289 179.898 115.289ZM210.273 112.992C210.273 112.164 209.859 111.516 209.031 111.047C208.219 110.562 206.906 110.133 205.094 109.758C199.062 108.492 196.047 105.93 196.047 102.07C196.047 99.8203 196.977 97.9453 198.836 96.4453C200.711 94.9297 203.156 94.1719 206.172 94.1719C209.391 94.1719 211.961 94.9297 213.883 96.4453C215.82 97.9609 216.789 99.9297 216.789 102.352H210.016C210.016 101.383 209.703 100.586 209.078 99.9609C208.453 99.3203 207.477 99 206.148 99C205.008 99 204.125 99.2578 203.5 99.7734C202.875 100.289 202.562 100.945 202.562 101.742C202.562 102.492 202.914 103.102 203.617 103.57C204.336 104.023 205.539 104.422 207.227 104.766C208.914 105.094 210.336 105.469 211.492 105.891C215.07 107.203 216.859 109.477 216.859 112.711C216.859 115.023 215.867 116.898 213.883 118.336C211.898 119.758 209.336 120.469 206.195 120.469C204.07 120.469 202.18 120.094 200.523 119.344C198.883 118.578 197.594 117.539 196.656 116.227C195.719 114.898 195.25 113.469 195.25 111.938H201.672C201.734 113.141 202.18 114.062 203.008 114.703C203.836 115.344 204.945 115.664 206.336 115.664C207.633 115.664 208.609 115.422 209.266 114.938C209.938 114.438 210.273 113.789 210.273 112.992Z" fill="#282828"/>
<rect y="61" width="100" height="10" fill="url(#paint0_linear_10_145)"/>
<rect x="45" y="11" width="10" height="130" fill="url(#paint1_linear_10_145)"/>
<defs>
<linearGradient id="paint0_linear_10_145" x1="50" y1="61" x2="50" y2="71" gradientUnits="userSpaceOnUse">
<stop stop-color="#FAD881"/>
<stop offset="1" stop-color="#D1AA44"/>
</linearGradient>
<linearGradient id="paint1_linear_10_145" x1="50" y1="11" x2="50" y2="141" gradientUnits="userSpaceOnUse">
<stop stop-color="#FAD881"/>
<stop offset="1" stop-color="#D1AA44"/>
</linearGradient>
</defs>
</svg>
